<svg xmlns="http://www.w3.org/2000/svg" viewBox="0 0 1000 1000"><rect width="1000" height="1000" fill="#555" rx="200" ry="200"/><svg xmlns="http://www.w3.org/2000/svg" xmlns:svgjs="http://svgjs.com/svgjs" xmlns:xlink="http://www.w3.org/1999/xlink" transform="matrix(18.18182 0 0 18.18182 100.5 136.74)" viewBox="0 0 44 40"><svg xmlns="http://www.w3.org/2000/svg" fill="none" viewBox="0 0 44 40"><g fill="#ECD979" clip-path="url(#a)"><path d="M43.94 39.46h-1.37v-1.4h1.37v1.4ZM42.57 39.46H41.2v-1.4h1.37v1.4ZM37.08 39.46H35.7v-1.4h1.37v1.4Z"/><path d="M35.7 39.46h-1.37v-1.4h1.38v1.4ZM34.33 39.46h-1.37v-1.4h1.37v1.4ZM26.1 39.46h-1.37v-1.4h1.37v1.4ZM17.87 39.46h-1.38v-1.4h1.38v1.4ZM9.63 39.46H8.26v-1.4h1.37v1.4Z"/><path d="M8.26 39.46H6.9v-1.4h1.37v1.4ZM6.89 39.46H5.52v-1.4h1.37v1.4ZM1.4 39.46H.03v-1.4H1.4v1.4ZM43.94 38.07h-1.37v-1.4h1.37v1.4ZM38.45 38.07h-1.37v-1.4h1.37v1.4ZM37.08 38.07H35.7v-1.4h1.37v1.4Z"/><path d="M35.7 38.07h-1.37v-1.4h1.38v1.4ZM26.1 38.07h-1.37v-1.4h1.37v1.4ZM24.73 38.07h-1.37v-1.4h1.37v1.4ZM19.24 38.07h-1.37v-1.4h1.37v1.4Z"/><path d="M17.87 38.07h-1.38v-1.4h1.38v1.4ZM8.26 38.07H6.9v-1.4h1.37v1.4ZM6.89 38.07H5.52v-1.4h1.37v1.4ZM5.52 38.07H4.14v-1.4h1.38v1.4ZM39.82 36.67h-1.37v-1.39h1.37v1.4ZM38.45 36.67h-1.37v-1.39h1.37v1.4ZM37.08 36.67H35.7v-1.39h1.37v1.4ZM26.1 36.67h-1.37v-1.39h1.37v1.4ZM24.73 36.67h-1.37v-1.39h1.37v1.4ZM23.36 36.67h-1.38v-1.39h1.38v1.4ZM20.61 36.67h-1.37v-1.39h1.37v1.4Z"/><path d="M19.24 36.67h-1.37v-1.39h1.37v1.4Z"/><path d="M17.87 36.67h-1.38v-1.39h1.38v1.4ZM6.89 36.67H5.52v-1.39h1.37v1.4ZM5.52 36.67H4.14v-1.39h1.38v1.4Z"/><path d="M4.14 36.67H2.77v-1.39h1.37v1.4ZM41.2 35.28h-1.38V33.9h1.38v1.4ZM39.82 35.28h-1.37V33.9h1.37v1.4ZM38.45 35.28h-1.37V33.9h1.37v1.4ZM31.59 35.28h-1.37V33.9h1.37v1.4ZM30.22 35.28h-1.37V33.9h1.37v1.4Z"/><path d="M28.85 35.28h-1.38V33.9h1.38v1.4ZM24.73 35.28h-1.37V33.9h1.37v1.4ZM23.36 35.28h-1.38V33.9h1.38v1.4ZM20.61 35.28h-1.37V33.9h1.37v1.4ZM19.24 35.28h-1.37V33.9h1.37v1.4ZM15.12 35.28h-1.37V33.9h1.37v1.4ZM13.75 35.28h-1.37V33.9h1.37v1.4Z"/><path d="M12.38 35.28H11V33.9h1.37v1.4ZM5.52 35.28H4.14V33.9h1.38v1.4Z"/><path d="M4.14 35.28H2.77V33.9h1.37v1.4ZM2.77 35.28H1.4V33.9h1.37v1.4ZM42.57 33.9H41.2v-1.4h1.37v1.4ZM41.2 33.9h-1.38v-1.4h1.38v1.4ZM39.82 33.9h-1.37v-1.4h1.37v1.4ZM30.22 33.9h-1.37v-1.4h1.37v1.4Z"/><path d="M28.85 33.9h-1.38v-1.4h1.38v1.4ZM27.47 33.9H26.1v-1.4h1.37v1.4ZM23.36 33.9h-1.38v-1.4h1.38v1.4ZM20.61 33.9h-1.37v-1.4h1.37v1.4ZM16.5 33.9h-1.38v-1.4h1.37v1.4ZM15.12 33.9h-1.37v-1.4h1.37v1.4ZM13.75 33.9h-1.37v-1.4h1.37v1.4ZM4.14 33.9H2.77v-1.4h1.37v1.4ZM2.77 33.9H1.4v-1.4h1.37v1.4ZM1.4 33.9H.03v-1.4H1.4v1.4ZM42.57 32.5H41.2v-1.4h1.37v1.4ZM41.2 32.5h-1.38v-1.4h1.38v1.4ZM28.85 32.5h-1.38v-1.4h1.38v1.4ZM27.47 32.5H26.1v-1.4h1.37v1.4ZM26.1 32.5h-1.37v-1.4h1.37v1.4ZM17.87 32.5h-1.38v-1.4h1.38v1.4Z"/><path d="M16.5 32.5h-1.38v-1.4h1.37v1.4ZM15.12 32.5h-1.37v-1.4h1.37v1.4ZM2.77 32.5H1.4v-1.4h1.37v1.4ZM1.4 32.5H.03v-1.4H1.4v1.4ZM42.57 31.1H41.2v-1.38h1.37v1.39ZM35.7 31.1h-1.37v-1.38h1.38v1.39ZM23.36 31.1h-1.38v-1.38h1.38v1.39ZM20.61 31.1h-1.37v-1.38h1.37v1.39ZM8.26 31.1H6.9v-1.38h1.37v1.39Z"/><path d="M1.4 31.1H.03v-1.38H1.4v1.39ZM35.7 29.72h-1.37v-1.4h1.38v1.4ZM34.33 29.72h-1.37v-1.4h1.37v1.4ZM24.73 29.72h-1.37v-1.4h1.37v1.4ZM23.36 29.72h-1.38v-1.4h1.38v1.4ZM20.61 29.72h-1.37v-1.4h1.37v1.4ZM19.24 29.72h-1.37v-1.4h1.37v1.4ZM9.63 29.72H8.26v-1.4h1.37v1.4Z"/><path d="M8.26 29.72H6.9v-1.4h1.37v1.4ZM35.7 28.33h-1.37v-1.4h1.38v1.4ZM34.33 28.33h-1.37v-1.4h1.37v1.4Z"/><path d="M32.96 28.33H31.6v-1.4h1.37v1.4ZM26.1 28.33h-1.37v-1.4h1.37v1.4ZM24.73 28.33h-1.37v-1.4h1.37v1.4ZM19.24 28.33h-1.37v-1.4h1.37v1.4Z"/><path d="M17.87 28.33h-1.38v-1.4h1.38v1.4ZM11 28.33H9.64v-1.4h1.38v1.4ZM9.63 28.33H8.26v-1.4h1.37v1.4Z"/><path d="M8.26 28.33H6.9v-1.4h1.37v1.4ZM34.33 26.93h-1.37v-1.39h1.37v1.4Z"/><path d="M32.96 26.93H31.6v-1.39h1.37v1.4ZM27.47 26.93H26.1v-1.39h1.37v1.4ZM26.1 26.93h-1.37v-1.39h1.37v1.4ZM17.87 26.93h-1.38v-1.39h1.38v1.4Z"/><path d="M16.5 26.93h-1.38v-1.39h1.37v1.4ZM11 26.93H9.64v-1.39h1.38v1.4ZM9.63 26.93H8.26v-1.39h1.37v1.4ZM39.82 25.54h-1.37v-1.39h1.37v1.4ZM38.45 25.54h-1.37v-1.39h1.37v1.4ZM37.08 25.54H35.7v-1.39h1.37v1.4ZM32.96 25.54H31.6v-1.39h1.37v1.4ZM28.85 25.54h-1.38v-1.39h1.38v1.4ZM27.47 25.54H26.1v-1.39h1.37v1.4Z"/><path d="M16.5 25.54h-1.38v-1.39h1.37v1.4ZM15.12 25.54h-1.37v-1.39h1.37v1.4ZM11 25.54H9.64v-1.39h1.38v1.4ZM6.89 25.54H5.52v-1.39h1.37v1.4ZM5.52 25.54H4.14v-1.39h1.38v1.4Z"/><path d="M4.14 25.54H2.77v-1.39h1.37v1.4ZM43.94 24.15h-1.37v-1.39h1.37v1.4ZM38.45 24.15h-1.37v-1.39h1.37v1.4ZM37.08 24.15H35.7v-1.39h1.37v1.4Z"/><path d="M35.7 24.15h-1.37v-1.39h1.38v1.4ZM30.22 24.15h-1.37v-1.39h1.37v1.4Z"/><path d="M28.85 24.15h-1.38v-1.39h1.38v1.4ZM15.12 24.15h-1.37v-1.39h1.37v1.4ZM13.75 24.15h-1.37v-1.39h1.37v1.4ZM8.26 24.15H6.9v-1.39h1.37v1.4ZM6.89 24.15H5.52v-1.39h1.37v1.4ZM5.52 24.15H4.14v-1.39h1.38v1.4ZM43.94 22.76h-1.37v-1.39h1.37v1.4ZM42.57 22.76H41.2v-1.39h1.37v1.4ZM37.08 22.76H35.7v-1.39h1.37v1.4Z"/><path d="M35.7 22.76h-1.37v-1.39h1.38v1.4ZM34.33 22.76h-1.37v-1.39h1.37v1.4ZM31.59 22.76h-1.37v-1.39h1.37v1.4ZM30.22 22.76h-1.37v-1.39h1.37v1.4ZM21.98 22.76h-1.37v-1.39h1.37v1.4ZM13.75 22.76h-1.37v-1.39h1.37v1.4Z"/><path d="M12.38 22.76H11v-1.39h1.37v1.4ZM9.63 22.76H8.26v-1.39h1.37v1.4Z"/><path d="M8.26 22.76H6.9v-1.39h1.37v1.4ZM6.89 22.76H5.52v-1.39h1.37v1.4ZM1.37 21.37H0v-1.4h1.37v1.4ZM2.77 21.37H1.4v-1.4h1.37v1.4ZM1.37 22.76H0v-1.39h1.37v1.4Z"/><path d="M1.37 19.98H0v-1.4h1.37v1.4ZM43.94 21.37h-1.37v-1.4h1.37v1.4ZM42.57 21.37H41.2v-1.4h1.37v1.4ZM41.2 21.37h-1.38v-1.4h1.38v1.4ZM23.36 21.37h-1.38v-1.4h1.38v1.4ZM21.98 21.37h-1.37v-1.4h1.37v1.4ZM20.61 21.37h-1.37v-1.4h1.37v1.4Z"/><path d="M43.94 19.98h-1.37v-1.4h1.37v1.4ZM42.57 19.98H41.2v-1.4h1.37v1.4ZM37.08 19.98H35.7v-1.4h1.37v1.4Z"/><path d="M35.7 19.98h-1.37v-1.4h1.38v1.4ZM34.33 19.98h-1.37v-1.4h1.37v1.4ZM31.59 19.98h-1.37v-1.4h1.37v1.4ZM30.22 19.98h-1.37v-1.4h1.37v1.4ZM21.98 19.98h-1.37v-1.4h1.37v1.4ZM13.75 19.98h-1.37v-1.4h1.37v1.4Z"/><path d="M12.38 19.98H11v-1.4h1.37v1.4ZM9.63 19.98H8.26v-1.4h1.37v1.4Z"/><path d="M8.26 19.98H6.9v-1.4h1.37v1.4ZM6.89 19.98H5.52v-1.4h1.37v1.4ZM43.94 18.59h-1.37v-1.4h1.37v1.4ZM38.45 18.59h-1.37v-1.4h1.37v1.4ZM37.08 18.59H35.7v-1.4h1.37v1.4Z"/><path d="M35.7 18.59h-1.37v-1.4h1.38v1.4ZM30.22 18.59h-1.37v-1.4h1.37v1.4Z"/><path d="M28.85 18.59h-1.38v-1.4h1.38v1.4ZM15.12 18.59h-1.37v-1.4h1.37v1.4ZM13.75 18.59h-1.37v-1.4h1.37v1.4ZM8.26 18.59H6.9v-1.4h1.37v1.4ZM6.89 18.59H5.52v-1.4h1.37v1.4ZM5.52 18.59H4.14v-1.4h1.38v1.4ZM39.82 17.2h-1.37v-1.4h1.37v1.4ZM38.45 17.2h-1.37v-1.4h1.37v1.4ZM37.08 17.2H35.7v-1.4h1.37v1.4ZM32.96 17.2H31.6v-1.4h1.37v1.4Z"/><path d="M28.85 17.2h-1.38v-1.4h1.38v1.4ZM27.47 17.2H26.1v-1.4h1.37v1.4ZM16.5 17.2h-1.38v-1.4h1.37v1.4ZM15.12 17.2h-1.37v-1.4h1.37v1.4ZM11 17.2H9.64v-1.4h1.38v1.4ZM6.89 17.2H5.52v-1.4h1.37v1.4ZM5.52 17.2H4.14v-1.4h1.38v1.4Z"/><path d="M4.14 17.2H2.77v-1.4h1.37v1.4ZM34.33 15.8h-1.37v-1.39h1.37v1.4Z"/><path d="M32.96 15.8H31.6v-1.39h1.37v1.4ZM27.47 15.8H26.1v-1.39h1.37v1.4ZM26.1 15.8h-1.37v-1.39h1.37v1.4ZM17.87 15.8h-1.38v-1.39h1.38v1.4Z"/><path d="M16.5 15.8h-1.38v-1.39h1.37v1.4ZM11 15.8H9.64v-1.39h1.38v1.4ZM9.63 15.8H8.26v-1.39h1.37v1.4ZM35.7 14.41h-1.37v-1.39h1.38v1.4ZM34.33 14.41h-1.37v-1.39h1.37v1.4Z"/><path d="M32.96 14.41H31.6v-1.39h1.37v1.4ZM26.1 14.41h-1.37v-1.39h1.37v1.4ZM24.73 14.41h-1.37v-1.39h1.37v1.4ZM19.24 14.41h-1.37v-1.39h1.37v1.4Z"/><path d="M17.87 14.41h-1.38v-1.39h1.38v1.4ZM11 14.41H9.64v-1.39h1.38v1.4ZM9.63 14.41H8.26v-1.39h1.37v1.4Z"/><path d="M8.26 14.41H6.9v-1.39h1.37v1.4ZM35.7 13.02h-1.37v-1.39h1.38v1.4ZM34.33 13.02h-1.37v-1.39h1.37v1.4ZM24.73 13.02h-1.37v-1.39h1.37v1.4ZM23.36 13.02h-1.38v-1.39h1.38v1.4ZM20.61 13.02h-1.37v-1.39h1.37v1.4ZM19.24 13.02h-1.37v-1.39h1.37v1.4Z"/><path d="M9.63 13.02H8.26v-1.39h1.37v1.4Z"/><path d="M8.26 13.02H6.9v-1.39h1.37v1.4ZM35.7 11.63h-1.37v-1.4h1.38v1.4ZM23.36 11.63h-1.38v-1.4h1.38v1.4ZM20.61 11.63h-1.37v-1.4h1.37v1.4Z"/><path d="M8.26 11.63H6.9v-1.4h1.37v1.4ZM42.57 10.24H41.2v-1.4h1.37v1.4ZM1.4 10.24H.03v-1.4H1.4v1.4Z"/><path d="M42.57 8.85H41.2v-1.4h1.37v1.4ZM41.2 8.85h-1.38v-1.4h1.38v1.4ZM28.85 8.85h-1.38v-1.4h1.38v1.4ZM27.47 8.85H26.1v-1.4h1.37v1.4ZM26.1 8.85h-1.37v-1.4h1.37v1.4ZM17.87 8.85h-1.38v-1.4h1.38v1.4Z"/><path d="M16.5 8.85h-1.38v-1.4h1.37v1.4ZM15.12 8.85h-1.37v-1.4h1.37v1.4ZM2.77 8.85H1.4v-1.4h1.37v1.4ZM1.4 8.85H.03v-1.4H1.4v1.4ZM42.57 7.46H41.2v-1.4h1.37v1.4ZM41.2 7.46h-1.38v-1.4h1.38v1.4ZM39.82 7.46h-1.37v-1.4h1.37v1.4ZM30.22 7.46h-1.37v-1.4h1.37v1.4Z"/><path d="M28.85 7.46h-1.38v-1.4h1.38v1.4ZM27.47 7.46H26.1v-1.4h1.37v1.4ZM23.36 7.46h-1.38v-1.4h1.38v1.4ZM20.61 7.46h-1.37v-1.4h1.37v1.4ZM16.5 7.46h-1.38v-1.4h1.37v1.4ZM15.12 7.46h-1.37v-1.4h1.37v1.4ZM13.75 7.46h-1.37v-1.4h1.37v1.4ZM4.14 7.46H2.77v-1.4h1.37v1.4ZM2.77 7.46H1.4v-1.4h1.37v1.4ZM1.4 7.46H.03v-1.4H1.4v1.4ZM41.2 6.07h-1.38v-1.4h1.38v1.4ZM39.82 6.07h-1.37v-1.4h1.37v1.4ZM38.45 6.07h-1.37v-1.4h1.37v1.4ZM31.59 6.07h-1.37v-1.4h1.37v1.4Z"/><path d="M30.22 6.07h-1.37v-1.4h1.37v1.4Z"/><path d="M28.85 6.07h-1.38v-1.4h1.38v1.4ZM24.73 6.07h-1.37v-1.4h1.37v1.4ZM23.36 6.07h-1.38v-1.4h1.38v1.4ZM20.61 6.07h-1.37v-1.4h1.37v1.4ZM19.24 6.07h-1.37v-1.4h1.37v1.4ZM15.12 6.07h-1.37v-1.4h1.37v1.4ZM13.75 6.07h-1.37v-1.4h1.37v1.4Z"/><path d="M12.38 6.07H11v-1.4h1.37v1.4ZM5.52 6.07H4.14v-1.4h1.38v1.4Z"/><path d="M4.14 6.07H2.77v-1.4h1.37v1.4ZM2.77 6.07H1.4v-1.4h1.37v1.4ZM39.82 4.67h-1.37V3.28h1.37v1.4ZM38.45 4.67h-1.37V3.28h1.37v1.4ZM37.08 4.67H35.7V3.28h1.37v1.4ZM26.1 4.67h-1.37V3.28h1.37v1.4ZM24.73 4.67h-1.37V3.28h1.37v1.4ZM23.36 4.67h-1.38V3.28h1.38v1.4ZM20.61 4.67h-1.37V3.28h1.37v1.4ZM19.24 4.67h-1.37V3.28h1.37v1.4Z"/><path d="M17.87 4.67h-1.38V3.28h1.38v1.4ZM6.89 4.67H5.52V3.28h1.37v1.4ZM5.52 4.67H4.14V3.28h1.38v1.4Z"/><path d="M4.14 4.67H2.77V3.28h1.37v1.4ZM43.94 3.28h-1.37V1.9h1.37v1.4ZM38.45 3.28h-1.37V1.9h1.37v1.4ZM37.08 3.28H35.7V1.9h1.37v1.4Z"/><path d="M35.7 3.28h-1.37V1.9h1.38v1.4ZM26.1 3.28h-1.37V1.9h1.37v1.4ZM24.73 3.28h-1.37V1.9h1.37v1.4ZM19.24 3.28h-1.37V1.9h1.37v1.4Z"/><path d="M17.87 3.28h-1.38V1.9h1.38v1.4ZM8.26 3.28H6.9V1.9h1.37v1.4ZM6.89 3.28H5.52V1.9h1.37v1.4ZM5.52 3.28H4.14V1.9h1.38v1.4ZM43.94 1.9h-1.37V.5h1.37v1.4ZM42.57 1.9H41.2V.5h1.37v1.4ZM37.08 1.9H35.7V.5h1.37v1.4Z"/><path d="M35.7 1.9h-1.37V.5h1.38v1.4ZM34.33 1.9h-1.37V.5h1.37v1.4ZM26.1 1.9h-1.37V.5h1.37v1.4ZM17.87 1.9h-1.38V.5h1.38v1.4ZM9.63 1.9H8.26V.5h1.37v1.4Z"/><path d="M8.26 1.9H6.9V.5h1.37v1.4ZM6.89 1.9H5.52V.5h1.37v1.4ZM1.4 1.9H.03V.5H1.4v1.4Z"/></g><defs><clipPath id="a"><path fill="#fff" d="M0 .5h44v39H0z"/></clipPath></defs></svg></svg></svg>