<svg aria-hidden="true" style="position: absolute; width: 0; height: 0; overflow: hidden;" version="1.1" xmlns="http://www.w3.org/2000/svg" xmlns:xlink="http://www.w3.org/1999/xlink">
<defs>
<symbol id="icon-masaic" viewBox="0 0 18 32">
<path d="M17.978 31.964h-1.124v-1.142h1.124v1.142z"></path>
<path d="M16.854 31.964h-1.124v-1.142h1.124v1.142z"></path>
<path d="M12.356 31.964h-1.124v-1.142h1.124v1.142z"></path>
<path d="M11.231 31.964h-1.124v-1.142h1.124v1.142z"></path>
<path d="M10.107 31.964h-1.124v-1.142h1.124v1.142z"></path>
<path d="M3.36 31.964h-1.124v-1.142h1.124v1.142z"></path>
<path d="M17.978 30.823h-1.124v-1.142h1.124v1.142z"></path>
<path d="M13.48 30.823h-1.124v-1.142h1.124v1.142z"></path>
<path d="M12.356 30.823h-1.124v-1.142h1.124v1.142z"></path>
<path d="M11.231 30.823h-1.124v-1.142h1.124v1.142z"></path>
<path d="M3.36 30.823h-1.124v-1.142h1.124v1.142z"></path>
<path d="M2.236 30.823h-1.124v-1.142h1.124v1.142z"></path>
<path d="M14.605 29.681h-1.124v-1.142h1.124v1.142z"></path>
<path d="M13.48 29.681h-1.124v-1.142h1.124v1.142z"></path>
<path d="M12.356 29.681h-1.124v-1.142h1.124v1.142z"></path>
<path d="M3.36 29.681h-1.124v-1.142h1.124v1.142z"></path>
<path d="M2.236 29.681h-1.124v-1.142h1.124v1.142z"></path>
<path d="M1.111 29.681h-1.124v-1.142h1.124v1.142z"></path>
<path d="M15.729 28.54h-1.124v-1.142h1.124v1.142z"></path>
<path d="M14.605 28.54h-1.124v-1.142h1.124v1.142z"></path>
<path d="M13.48 28.54h-1.124v-1.142h1.124v1.142z"></path>
<path d="M7.858 28.54h-1.124v-1.142h1.124v1.142z"></path>
<path d="M6.734 28.54h-1.124v-1.142h1.124v1.142z"></path>
<path d="M5.609 28.54h-1.124v-1.142h1.124v1.142z"></path>
<path d="M2.236 28.54h-1.124v-1.142h1.124v1.142z"></path>
<path d="M1.111 28.54h-1.124v-1.142h1.124v1.142z"></path>
<path d="M16.854 27.398h-1.124v-1.142h1.124v1.142z"></path>
<path d="M15.729 27.398h-1.124v-1.142h1.124v1.142z"></path>
<path d="M14.605 27.398h-1.124v-1.142h1.124v1.142z"></path>
<path d="M6.734 27.398h-1.124v-1.142h1.124v1.142z"></path>
<path d="M5.609 27.398h-1.124v-1.142h1.124v1.142z"></path>
<path d="M4.485 27.398h-1.124v-1.142h1.124v1.142z"></path>
<path d="M1.111 27.398h-1.124v-1.142h1.124v1.142z"></path>
<path d="M16.854 26.256h-1.124v-1.142h1.124v1.142z"></path>
<path d="M15.729 26.256h-1.124v-1.142h1.124v1.142z"></path>
<path d="M5.609 26.256h-1.124v-1.142h1.124v1.142z"></path>
<path d="M4.485 26.256h-1.124v-1.142h1.124v1.142z"></path>
<path d="M3.36 26.256h-1.124v-1.142h1.124v1.142z"></path>
<path d="M16.854 25.115h-1.124v-1.142h1.124v1.142z"></path>
<path d="M11.231 25.115h-1.124v-1.142h1.124v1.142z"></path>
<path d="M1.111 25.115h-1.124v-1.142h1.124v1.142z"></path>
<path d="M11.231 23.973h-1.124v-1.142h1.124v1.142z"></path>
<path d="M10.107 23.973h-1.124v-1.142h1.124v1.142z"></path>
<path d="M2.236 23.973h-1.124v-1.142h1.124v1.142z"></path>
<path d="M1.111 23.973h-1.124v-1.142h1.124v1.142z"></path>
<path d="M11.231 22.832h-1.124v-1.142h1.124v1.142z"></path>
<path d="M10.107 22.832h-1.124v-1.142h1.124v1.142z"></path>
<path d="M8.983 22.832h-1.124v-1.142h1.124v1.142z"></path>
<path d="M3.36 22.832h-1.124v-1.142h1.124v1.142z"></path>
<path d="M2.236 22.832h-1.124v-1.142h1.124v1.142z"></path>
<path d="M10.107 21.69h-1.124v-1.142h1.124v1.142z"></path>
<path d="M8.983 21.69h-1.124v-1.142h1.124v1.142z"></path>
<path d="M4.485 21.69h-1.124v-1.142h1.124v1.142z"></path>
<path d="M3.36 21.69h-1.124v-1.142h1.124v1.142z"></path>
<path d="M14.605 20.548h-1.124v-1.142h1.124v1.142z"></path>
<path d="M13.48 20.548h-1.124v-1.142h1.124v1.142z"></path>
<path d="M12.356 20.548h-1.124v-1.142h1.124v1.142z"></path>
<path d="M8.983 20.548h-1.124v-1.142h1.124v1.142z"></path>
<path d="M5.609 20.548h-1.124v-1.142h1.124v1.142z"></path>
<path d="M4.485 20.548h-1.124v-1.142h1.124v1.142z"></path>
<path d="M17.978 19.407h-1.124v-1.142h1.124v1.142z"></path>
<path d="M13.48 19.407h-1.124v-1.142h1.124v1.142z"></path>
<path d="M12.356 19.407h-1.124v-1.142h1.124v1.142z"></path>
<path d="M11.231 19.407h-1.124v-1.142h1.124v1.142z"></path>
<path d="M6.734 19.407h-1.124v-1.142h1.124v1.142z"></path>
<path d="M5.609 19.407h-1.124v-1.142h1.124v1.142z"></path>
<path d="M17.978 18.265h-1.124v-1.142h1.124v1.142z"></path>
<path d="M16.854 18.265h-1.124v-1.142h1.124v1.142z"></path>
<path d="M12.356 18.265h-1.124v-1.142h1.124v1.142z"></path>
<path d="M11.231 18.265h-1.124v-1.142h1.124v1.142z"></path>
<path d="M10.107 18.265h-1.124v-1.142h1.124v1.142z"></path>
<path d="M7.858 18.265h-1.124v-1.142h1.124v1.142z"></path>
<path d="M6.734 18.265h-1.124v-1.142h1.124v1.142z"></path>
<path d="M17.978 17.124h-1.124v-1.142h1.124v1.142z"></path>
<path d="M16.854 17.124h-1.124v-1.142h1.124v1.142z"></path>
<path d="M15.729 17.124h-1.124v-1.142h1.124v1.142z"></path>
<path d="M1.111 17.124h-1.124v-1.142h1.124v1.142z"></path>
<path d="M17.978 15.982h-1.124v-1.142h1.124v1.142z"></path>
<path d="M16.854 15.982h-1.124v-1.142h1.124v1.142z"></path>
<path d="M12.356 15.982h-1.124v-1.142h1.124v1.142z"></path>
<path d="M11.231 15.982h-1.124v-1.142h1.124v1.142z"></path>
<path d="M10.107 15.982h-1.124v-1.142h1.124v1.142z"></path>
<path d="M7.858 15.982h-1.124v-1.142h1.124v1.142z"></path>
<path d="M6.734 15.982h-1.124v-1.142h1.124v1.142z"></path>
<path d="M17.978 14.841h-1.124v-1.142h1.124v1.142z"></path>
<path d="M13.48 14.841h-1.124v-1.142h1.124v1.142z"></path>
<path d="M12.356 14.841h-1.124v-1.142h1.124v1.142z"></path>
<path d="M11.231 14.841h-1.124v-1.142h1.124v1.142z"></path>
<path d="M6.734 14.841h-1.124v-1.142h1.124v1.142z"></path>
<path d="M5.609 14.841h-1.124v-1.142h1.124v1.142z"></path>
<path d="M14.605 13.699h-1.124v-1.142h1.124v1.142z"></path>
<path d="M13.48 13.699h-1.124v-1.142h1.124v1.142z"></path>
<path d="M12.356 13.699h-1.124v-1.142h1.124v1.142z"></path>
<path d="M8.983 13.699h-1.124v-1.142h1.124v1.142z"></path>
<path d="M5.609 13.699h-1.124v-1.142h1.124v1.142z"></path>
<path d="M4.485 13.699h-1.124v-1.142h1.124v1.142z"></path>
<path d="M10.107 12.557h-1.124v-1.142h1.124v1.142z"></path>
<path d="M8.983 12.557h-1.124v-1.142h1.124v1.142z"></path>
<path d="M4.485 12.557h-1.124v-1.142h1.124v1.142z"></path>
<path d="M3.36 12.557h-1.124v-1.142h1.124v1.142z"></path>
<path d="M11.231 11.416h-1.124v-1.142h1.124v1.142z"></path>
<path d="M10.107 11.416h-1.124v-1.142h1.124v1.142z"></path>
<path d="M8.983 11.416h-1.124v-1.142h1.124v1.142z"></path>
<path d="M3.36 11.416h-1.124v-1.142h1.124v1.142z"></path>
<path d="M2.236 11.416h-1.124v-1.142h1.124v1.142z"></path>
<path d="M11.231 10.274h-1.124v-1.142h1.124v1.142z"></path>
<path d="M10.107 10.274h-1.124v-1.142h1.124v1.142z"></path>
<path d="M2.236 10.274h-1.124v-1.142h1.124v1.142z"></path>
<path d="M1.111 10.274h-1.124v-1.142h1.124v1.142z"></path>
<path d="M11.231 9.133h-1.124v-1.142h1.124v1.142z"></path>
<path d="M1.111 9.133h-1.124v-1.142h1.124v1.142z"></path>
<path d="M16.854 7.991h-1.124v-1.142h1.124v1.142z"></path>
<path d="M16.854 6.849h-1.124v-1.142h1.124v1.142z"></path>
<path d="M15.729 6.849h-1.124v-1.142h1.124v1.142z"></path>
<path d="M5.609 6.849h-1.124v-1.142h1.124v1.142z"></path>
<path d="M4.485 6.849h-1.124v-1.142h1.124v1.142z"></path>
<path d="M3.36 6.849h-1.124v-1.142h1.124v1.142z"></path>
<path d="M16.854 5.708h-1.124v-1.142h1.124v1.142z"></path>
<path d="M15.729 5.708h-1.124v-1.142h1.124v1.142z"></path>
<path d="M14.605 5.708h-1.124v-1.142h1.124v1.142z"></path>
<path d="M6.734 5.708h-1.124v-1.142h1.124v1.142z"></path>
<path d="M5.609 5.708h-1.124v-1.142h1.124v1.142z"></path>
<path d="M4.485 5.708h-1.124v-1.142h1.124v1.142z"></path>
<path d="M1.111 5.708h-1.124v-1.142h1.124v1.142z"></path>
<path d="M15.729 4.566h-1.124v-1.142h1.124v1.142z"></path>
<path d="M14.605 4.566h-1.124v-1.142h1.124v1.142z"></path>
<path d="M13.48 4.566h-1.124v-1.142h1.124v1.142z"></path>
<path d="M7.858 4.566h-1.124v-1.142h1.124v1.142z"></path>
<path d="M6.734 4.566h-1.124v-1.142h1.124v1.142z"></path>
<path d="M5.609 4.566h-1.124v-1.142h1.124v1.142z"></path>
<path d="M2.236 4.566h-1.124v-1.142h1.124v1.142z"></path>
<path d="M1.111 4.566h-1.124v-1.142h1.124v1.142z"></path>
<path d="M14.605 3.425h-1.124v-1.142h1.124v1.142z"></path>
<path d="M13.48 3.425h-1.124v-1.142h1.124v1.142z"></path>
<path d="M12.356 3.425h-1.124v-1.142h1.124v1.142z"></path>
<path d="M3.36 3.425h-1.124v-1.142h1.124v1.142z"></path>
<path d="M2.236 3.425h-1.124v-1.142h1.124v1.142z"></path>
<path d="M1.111 3.425h-1.124v-1.142h1.124v1.142z"></path>
<path d="M17.978 2.283h-1.124v-1.142h1.124v1.142z"></path>
<path d="M13.48 2.283h-1.124v-1.142h1.124v1.142z"></path>
<path d="M12.356 2.283h-1.124v-1.142h1.124v1.142z"></path>
<path d="M11.231 2.283h-1.124v-1.142h1.124v1.142z"></path>
<path d="M3.36 2.283h-1.124v-1.142h1.124v1.142z"></path>
<path d="M2.236 2.283h-1.124v-1.142h1.124v1.142z"></path>
<path d="M17.978 1.142h-1.124v-1.142h1.124v1.142z"></path>
<path d="M16.854 1.142h-1.124v-1.142h1.124v1.142z"></path>
<path d="M12.356 1.142h-1.124v-1.142h1.124v1.142z"></path>
<path d="M11.231 1.142h-1.124v-1.142h1.124v1.142z"></path>
<path d="M10.107 1.142h-1.124v-1.142h1.124v1.142z"></path>
<path d="M3.36 1.142h-1.124v-1.142h1.124v1.142z"></path>
</symbol>

<symbol id="icon-logo" viewBox="0 0 40 40">
<path d="M43.9409 38.9565H42.5686V37.5652H43.9409V38.9565Z" fill="#ECD979"/>
    <path d="M42.5686 38.9565H41.1963V37.5652H42.5686V38.9565Z" fill="#ECD979"/>
    <path d="M37.0794 38.9565H35.707V37.5652H37.0794V38.9565Z" fill="#ECD979"/>
    <path d="M35.707 38.9565H34.3347V37.5652H35.707V38.9565Z" fill="#ECD979"/>
    <path d="M34.3347 38.9565H32.9624V37.5652H34.3347V38.9565Z" fill="#ECD979"/>
    <path d="M26.1008 38.9565H24.7285V37.5652H26.1008V38.9565Z" fill="#ECD979"/>
    <path d="M17.8672 38.9565H16.4949V37.5652H17.8672V38.9565Z" fill="#ECD979"/>
    <path d="M9.63331 38.9565H8.26099V37.5652H9.63331V38.9565Z" fill="#ECD979"/>
    <path d="M8.26099 38.9565H6.88867V37.5652H8.26099V38.9565Z" fill="#ECD979"/>
    <path d="M6.88868 38.9565H5.51636V37.5652H6.88868V38.9565Z" fill="#ECD979"/>
    <path d="M1.39942 38.9565H0.0270996V37.5652H1.39942V38.9565Z" fill="#ECD979"/>
    <path d="M43.9409 37.5652H42.5686V36.1739H43.9409V37.5652Z" fill="#ECD979"/>
    <path d="M38.4517 37.5652H37.0793V36.1739H38.4517V37.5652Z" fill="#ECD979"/>
    <path d="M37.0794 37.5652H35.707V36.1739H37.0794V37.5652Z" fill="#ECD979"/>
    <path d="M35.707 37.5652H34.3347V36.1739H35.707V37.5652Z" fill="#ECD979"/>
    <path d="M26.1008 37.5652H24.7285V36.1739H26.1008V37.5652Z" fill="#ECD979"/>
    <path d="M24.7285 37.5652H23.3562V36.1739H24.7285V37.5652Z" fill="#ECD979"/>
    <path d="M19.2395 37.5652H17.8672V36.1739H19.2395V37.5652Z" fill="#ECD979"/>
    <path d="M17.8672 37.5652H16.4949V36.1739H17.8672V37.5652Z" fill="#ECD979"/>
    <path d="M8.26099 37.5652H6.88867V36.1739H8.26099V37.5652Z" fill="#ECD979"/>
    <path d="M6.88868 37.5652H5.51636V36.1739H6.88868V37.5652Z" fill="#ECD979"/>
    <path d="M5.51636 37.5652H4.14404V36.1739H5.51636V37.5652Z" fill="#ECD979"/>
    <path d="M39.824 36.1739H38.4517V34.7826H39.824V36.1739Z" fill="#ECD979"/>
    <path d="M38.4517 36.1739H37.0793V34.7826H38.4517V36.1739Z" fill="#ECD979"/>
    <path d="M37.0794 36.1739H35.707V34.7826H37.0794V36.1739Z" fill="#ECD979"/>
    <path d="M26.1008 36.1739H24.7285V34.7826H26.1008V36.1739Z" fill="#ECD979"/>
    <path d="M24.7285 36.1739H23.3562V34.7826H24.7285V36.1739Z" fill="#ECD979"/>
    <path d="M23.3562 36.1739H21.9839V34.7826H23.3562V36.1739Z" fill="#ECD979"/>
    <path d="M20.6118 36.1739H19.2395V34.7826H20.6118V36.1739Z" fill="#ECD979"/>
    <path d="M19.2395 36.1739H17.8672V34.7826H19.2395V36.1739Z" fill="#ECD979"/>
    <path d="M17.8672 36.1739H16.4949V34.7826H17.8672V36.1739Z" fill="#ECD979"/>
    <path d="M6.88868 36.1739H5.51636V34.7826H6.88868V36.1739Z" fill="#ECD979"/>
    <path d="M5.51636 36.1739H4.14404V34.7826H5.51636V36.1739Z" fill="#ECD979"/>
    <path d="M4.14405 36.1739H2.77173V34.7826H4.14405V36.1739Z" fill="#ECD979"/>
    <path d="M41.1963 34.7826H39.824V33.3913H41.1963V34.7826Z" fill="#ECD979"/>
    <path d="M39.824 34.7826H38.4517V33.3913H39.824V34.7826Z" fill="#ECD979"/>
    <path d="M38.4517 34.7826H37.0793V33.3913H38.4517V34.7826Z" fill="#ECD979"/>
    <path d="M31.5901 34.7826H30.2178V33.3913H31.5901V34.7826Z" fill="#ECD979"/>
    <path d="M30.2178 34.7826H28.8455V33.3913H30.2178V34.7826Z" fill="#ECD979"/>
    <path d="M28.8455 34.7826H27.4731V33.3913H28.8455V34.7826Z" fill="#ECD979"/>
    <path d="M24.7285 34.7826H23.3562V33.3913H24.7285V34.7826Z" fill="#ECD979"/>
    <path d="M23.3562 34.7826H21.9839V33.3913H23.3562V34.7826Z" fill="#ECD979"/>
    <path d="M20.6118 34.7826H19.2395V33.3913H20.6118V34.7826Z" fill="#ECD979"/>
    <path d="M19.2395 34.7826H17.8672V33.3913H19.2395V34.7826Z" fill="#ECD979"/>
    <path d="M15.1226 34.7826H13.7502V33.3913H15.1226V34.7826Z" fill="#ECD979"/>
    <path d="M13.7502 34.7826H12.3779V33.3913H13.7502V34.7826Z" fill="#ECD979"/>
    <path d="M12.3779 34.7826H11.0056V33.3913H12.3779V34.7826Z" fill="#ECD979"/>
    <path d="M5.51636 34.7826H4.14404V33.3913H5.51636V34.7826Z" fill="#ECD979"/>
    <path d="M4.14405 34.7826H2.77173V33.3913H4.14405V34.7826Z" fill="#ECD979"/>
    <path d="M2.77173 34.7826H1.39941V33.3913H2.77173V34.7826Z" fill="#ECD979"/>
    <path d="M42.5686 33.3913H41.1963V32H42.5686V33.3913Z" fill="#ECD979"/>
    <path d="M41.1963 33.3913H39.824V32H41.1963V33.3913Z" fill="#ECD979"/>
    <path d="M39.824 33.3913H38.4517V32H39.824V33.3913Z" fill="#ECD979"/>
    <path d="M30.2178 33.3913H28.8455V32H30.2178V33.3913Z" fill="#ECD979"/>
    <path d="M28.8455 33.3913H27.4731V32H28.8455V33.3913Z" fill="#ECD979"/>
    <path d="M27.4731 33.3913H26.1008V32H27.4731V33.3913Z" fill="#ECD979"/>
    <path d="M23.3562 33.3913H21.9839V32H23.3562V33.3913Z" fill="#ECD979"/>
    <path d="M20.6118 33.3913H19.2395V32H20.6118V33.3913Z" fill="#ECD979"/>
    <path d="M16.4949 33.3913H15.1226V32H16.4949V33.3913Z" fill="#ECD979"/>
    <path d="M15.1226 33.3913H13.7502V32H15.1226V33.3913Z" fill="#ECD979"/>
    <path d="M13.7502 33.3913H12.3779V32H13.7502V33.3913Z" fill="#ECD979"/>
    <path d="M4.14405 33.3913H2.77173V32H4.14405V33.3913Z" fill="#ECD979"/>
    <path d="M2.77173 33.3913H1.39941V32H2.77173V33.3913Z" fill="#ECD979"/>
    <path d="M1.39942 33.3913H0.0270996V32H1.39942V33.3913Z" fill="#ECD979"/>
    <path d="M42.5686 32H41.1963V30.6087H42.5686V32Z" fill="#ECD979"/>
    <path d="M41.1963 32H39.824V30.6087H41.1963V32Z" fill="#ECD979"/>
    <path d="M28.8455 32H27.4731V30.6087H28.8455V32Z" fill="#ECD979"/>
    <path d="M27.4731 32H26.1008V30.6087H27.4731V32Z" fill="#ECD979"/>
    <path d="M26.1008 32H24.7285V30.6087H26.1008V32Z" fill="#ECD979"/>
    <path d="M17.8672 32H16.4949V30.6087H17.8672V32Z" fill="#ECD979"/>
    <path d="M16.4949 32H15.1226V30.6087H16.4949V32Z" fill="#ECD979"/>
    <path d="M15.1226 32H13.7502V30.6087H15.1226V32Z" fill="#ECD979"/>
    <path d="M2.77173 32H1.39941V30.6087H2.77173V32Z" fill="#ECD979"/>
    <path d="M1.39942 32H0.0270996V30.6087H1.39942V32Z" fill="#ECD979"/>
    <path d="M42.5686 30.6087H41.1963V29.2174H42.5686V30.6087Z" fill="#ECD979"/>
    <path d="M35.707 30.6087H34.3347V29.2174H35.707V30.6087Z" fill="#ECD979"/>
    <path d="M23.3562 30.6087H21.9839V29.2174H23.3562V30.6087Z" fill="#ECD979"/>
    <path d="M20.6118 30.6087H19.2395V29.2174H20.6118V30.6087Z" fill="#ECD979"/>
    <path d="M8.26099 30.6087H6.88867V29.2174H8.26099V30.6087Z" fill="#ECD979"/>
    <path d="M1.39942 30.6087H0.0270996V29.2174H1.39942V30.6087Z" fill="#ECD979"/>
    <path d="M35.707 29.2174H34.3347V27.8261H35.707V29.2174Z" fill="#ECD979"/>
    <path d="M34.3347 29.2174H32.9624V27.8261H34.3347V29.2174Z" fill="#ECD979"/>
    <path d="M24.7285 29.2174H23.3562V27.8261H24.7285V29.2174Z" fill="#ECD979"/>
    <path d="M23.3562 29.2174H21.9839V27.8261H23.3562V29.2174Z" fill="#ECD979"/>
    <path d="M20.6118 29.2174H19.2395V27.8261H20.6118V29.2174Z" fill="#ECD979"/>
    <path d="M19.2395 29.2174H17.8672V27.8261H19.2395V29.2174Z" fill="#ECD979"/>
    <path d="M9.63331 29.2174H8.26099V27.8261H9.63331V29.2174Z" fill="#ECD979"/>
    <path d="M8.26099 29.2174H6.88867V27.8261H8.26099V29.2174Z" fill="#ECD979"/>
    <path d="M35.707 27.8261H34.3347V26.4348H35.707V27.8261Z" fill="#ECD979"/>
    <path d="M34.3347 27.8261H32.9624V26.4348H34.3347V27.8261Z" fill="#ECD979"/>
    <path d="M32.9624 27.8261H31.5901V26.4348H32.9624V27.8261Z" fill="#ECD979"/>
    <path d="M26.1008 27.8261H24.7285V26.4348H26.1008V27.8261Z" fill="#ECD979"/>
    <path d="M24.7285 27.8261H23.3562V26.4348H24.7285V27.8261Z" fill="#ECD979"/>
    <path d="M19.2395 27.8261H17.8672V26.4348H19.2395V27.8261Z" fill="#ECD979"/>
    <path d="M17.8672 27.8261H16.4949V26.4348H17.8672V27.8261Z" fill="#ECD979"/>
    <path d="M11.0056 27.8261H9.6333V26.4348H11.0056V27.8261Z" fill="#ECD979"/>
    <path d="M9.63331 27.8261H8.26099V26.4348H9.63331V27.8261Z" fill="#ECD979"/>
    <path d="M8.26099 27.8261H6.88867V26.4348H8.26099V27.8261Z" fill="#ECD979"/>
    <path d="M34.3347 26.4348H32.9624V25.0435H34.3347V26.4348Z" fill="#ECD979"/>
    <path d="M32.9624 26.4348H31.5901V25.0435H32.9624V26.4348Z" fill="#ECD979"/>
    <path d="M27.4731 26.4348H26.1008V25.0435H27.4731V26.4348Z" fill="#ECD979"/>
    <path d="M26.1008 26.4348H24.7285V25.0435H26.1008V26.4348Z" fill="#ECD979"/>
    <path d="M17.8672 26.4348H16.4949V25.0435H17.8672V26.4348Z" fill="#ECD979"/>
    <path d="M16.4949 26.4348H15.1226V25.0435H16.4949V26.4348Z" fill="#ECD979"/>
    <path d="M11.0056 26.4348H9.6333V25.0435H11.0056V26.4348Z" fill="#ECD979"/>
    <path d="M9.63331 26.4348H8.26099V25.0435H9.63331V26.4348Z" fill="#ECD979"/>
    <path d="M39.824 25.0435H38.4517V23.6522H39.824V25.0435Z" fill="#ECD979"/>
    <path d="M38.4517 25.0435H37.0793V23.6522H38.4517V25.0435Z" fill="#ECD979"/>
    <path d="M37.0794 25.0435H35.707V23.6522H37.0794V25.0435Z" fill="#ECD979"/>
    <path d="M32.9624 25.0435H31.5901V23.6522H32.9624V25.0435Z" fill="#ECD979"/>
    <path d="M28.8455 25.0435H27.4731V23.6522H28.8455V25.0435Z" fill="#ECD979"/>
    <path d="M27.4731 25.0435H26.1008V23.6522H27.4731V25.0435Z" fill="#ECD979"/>
    <path d="M16.4949 25.0435H15.1226V23.6522H16.4949V25.0435Z" fill="#ECD979"/>
    <path d="M15.1226 25.0435H13.7502V23.6522H15.1226V25.0435Z" fill="#ECD979"/>
    <path d="M11.0056 25.0435H9.6333V23.6522H11.0056V25.0435Z" fill="#ECD979"/>
    <path d="M6.88868 25.0435H5.51636V23.6522H6.88868V25.0435Z" fill="#ECD979"/>
    <path d="M5.51636 25.0435H4.14404V23.6522H5.51636V25.0435Z" fill="#ECD979"/>
    <path d="M4.14405 25.0435H2.77173V23.6522H4.14405V25.0435Z" fill="#ECD979"/>
    <path d="M43.9409 23.6522H42.5686V22.2609H43.9409V23.6522Z" fill="#ECD979"/>
    <path d="M38.4517 23.6522H37.0793V22.2609H38.4517V23.6522Z" fill="#ECD979"/>
    <path d="M37.0794 23.6522H35.707V22.2609H37.0794V23.6522Z" fill="#ECD979"/>
    <path d="M35.707 23.6522H34.3347V22.2609H35.707V23.6522Z" fill="#ECD979"/>
    <path d="M30.2178 23.6522H28.8455V22.2609H30.2178V23.6522Z" fill="#ECD979"/>
    <path d="M28.8455 23.6522H27.4731V22.2609H28.8455V23.6522Z" fill="#ECD979"/>
    <path d="M15.1226 23.6522H13.7502V22.2609H15.1226V23.6522Z" fill="#ECD979"/>
    <path d="M13.7502 23.6522H12.3779V22.2609H13.7502V23.6522Z" fill="#ECD979"/>
    <path d="M8.26099 23.6522H6.88867V22.2609H8.26099V23.6522Z" fill="#ECD979"/>
    <path d="M6.88868 23.6522H5.51636V22.2609H6.88868V23.6522Z" fill="#ECD979"/>
    <path d="M5.51636 23.6522H4.14404V22.2609H5.51636V23.6522Z" fill="#ECD979"/>
    <path d="M43.9409 22.2609H42.5686V20.8696H43.9409V22.2609Z" fill="#ECD979"/>
    <path d="M42.5686 22.2609H41.1963V20.8696H42.5686V22.2609Z" fill="#ECD979"/>
    <path d="M37.0794 22.2609H35.707V20.8696H37.0794V22.2609Z" fill="#ECD979"/>
    <path d="M35.707 22.2609H34.3347V20.8696H35.707V22.2609Z" fill="#ECD979"/>
    <path d="M34.3347 22.2609H32.9624V20.8696H34.3347V22.2609Z" fill="#ECD979"/>
    <path d="M31.5901 22.2609H30.2178V20.8696H31.5901V22.2609Z" fill="#ECD979"/>
    <path d="M30.2178 22.2609H28.8455V20.8696H30.2178V22.2609Z" fill="#ECD979"/>
    <path d="M21.9841 22.2609H20.6118V20.8696H21.9841V22.2609Z" fill="#ECD979"/>
    <path d="M13.7502 22.2609H12.3779V20.8696H13.7502V22.2609Z" fill="#ECD979"/>
    <path d="M12.3779 22.2609H11.0056V20.8696H12.3779V22.2609Z" fill="#ECD979"/>
    <path d="M9.63331 22.2609H8.26099V20.8696H9.63331V22.2609Z" fill="#ECD979"/>
    <path d="M8.26099 22.2609H6.88867V20.8696H8.26099V22.2609Z" fill="#ECD979"/>
    <path d="M6.88868 22.2609H5.51636V20.8696H6.88868V22.2609Z" fill="#ECD979"/>
    <path d="M1.37232 20.8696H0V19.4783H1.37232V20.8696Z" fill="#ECD979"/>
    <path d="M2.77173 20.8696H1.39941V19.4783H2.77173V20.8696Z" fill="#ECD979"/>
    <path d="M1.37232 22.2609H0V20.8696H1.37232V22.2609Z" fill="#ECD979"/>
    <path d="M1.37232 19.4783H0V18.087H1.37232V19.4783Z" fill="#ECD979"/>
    <path d="M43.9409 20.8696H42.5686V19.4783H43.9409V20.8696Z" fill="#ECD979"/>
    <path d="M42.5686 20.8696H41.1963V19.4783H42.5686V20.8696Z" fill="#ECD979"/>
    <path d="M41.1963 20.8696H39.824V19.4783H41.1963V20.8696Z" fill="#ECD979"/>
    <path d="M23.3562 20.8696H21.9839V19.4783H23.3562V20.8696Z" fill="#ECD979"/>
    <path d="M21.9841 20.8696H20.6118V19.4783H21.9841V20.8696Z" fill="#ECD979"/>
    <path d="M20.6118 20.8696H19.2395V19.4783H20.6118V20.8696Z" fill="#ECD979"/>
    <path d="M43.9409 19.4783H42.5686V18.087H43.9409V19.4783Z" fill="#ECD979"/>
    <path d="M42.5686 19.4783H41.1963V18.087H42.5686V19.4783Z" fill="#ECD979"/>
    <path d="M37.0794 19.4783H35.707V18.087H37.0794V19.4783Z" fill="#ECD979"/>
    <path d="M35.707 19.4783H34.3347V18.087H35.707V19.4783Z" fill="#ECD979"/>
    <path d="M34.3347 19.4783H32.9624V18.087H34.3347V19.4783Z" fill="#ECD979"/>
    <path d="M31.5901 19.4783H30.2178V18.087H31.5901V19.4783Z" fill="#ECD979"/>
    <path d="M30.2178 19.4783H28.8455V18.087H30.2178V19.4783Z" fill="#ECD979"/>
    <path d="M21.9841 19.4783H20.6118V18.087H21.9841V19.4783Z" fill="#ECD979"/>
    <path d="M13.7502 19.4783H12.3779V18.087H13.7502V19.4783Z" fill="#ECD979"/>
    <path d="M12.3779 19.4783H11.0056V18.087H12.3779V19.4783Z" fill="#ECD979"/>
    <path d="M9.63331 19.4783H8.26099V18.087H9.63331V19.4783Z" fill="#ECD979"/>
    <path d="M8.26099 19.4783H6.88867V18.087H8.26099V19.4783Z" fill="#ECD979"/>
    <path d="M6.88868 19.4783H5.51636V18.087H6.88868V19.4783Z" fill="#ECD979"/>
    <path d="M43.9409 18.0869H42.5686V16.6956H43.9409V18.0869Z" fill="#ECD979"/>
    <path d="M38.4517 18.0869H37.0793V16.6956H38.4517V18.0869Z" fill="#ECD979"/>
    <path d="M37.0794 18.0869H35.707V16.6956H37.0794V18.0869Z" fill="#ECD979"/>
    <path d="M35.707 18.0869H34.3347V16.6956H35.707V18.0869Z" fill="#ECD979"/>
    <path d="M30.2178 18.0869H28.8455V16.6956H30.2178V18.0869Z" fill="#ECD979"/>
    <path d="M28.8455 18.0869H27.4731V16.6956H28.8455V18.0869Z" fill="#ECD979"/>
    <path d="M15.1226 18.0869H13.7502V16.6956H15.1226V18.0869Z" fill="#ECD979"/>
    <path d="M13.7502 18.0869H12.3779V16.6956H13.7502V18.0869Z" fill="#ECD979"/>
    <path d="M8.26099 18.0869H6.88867V16.6956H8.26099V18.0869Z" fill="#ECD979"/>
    <path d="M6.88868 18.0869H5.51636V16.6956H6.88868V18.0869Z" fill="#ECD979"/>
    <path d="M5.51636 18.0869H4.14404V16.6956H5.51636V18.0869Z" fill="#ECD979"/>
    <path d="M39.824 16.6956H38.4517V15.3043H39.824V16.6956Z" fill="#ECD979"/>
    <path d="M38.4517 16.6956H37.0793V15.3043H38.4517V16.6956Z" fill="#ECD979"/>
    <path d="M37.0794 16.6956H35.707V15.3043H37.0794V16.6956Z" fill="#ECD979"/>
    <path d="M32.9624 16.6956H31.5901V15.3043H32.9624V16.6956Z" fill="#ECD979"/>
    <path d="M28.8455 16.6956H27.4731V15.3043H28.8455V16.6956Z" fill="#ECD979"/>
    <path d="M27.4731 16.6956H26.1008V15.3043H27.4731V16.6956Z" fill="#ECD979"/>
    <path d="M16.4949 16.6956H15.1226V15.3043H16.4949V16.6956Z" fill="#ECD979"/>
    <path d="M15.1226 16.6956H13.7502V15.3043H15.1226V16.6956Z" fill="#ECD979"/>
    <path d="M11.0056 16.6956H9.6333V15.3043H11.0056V16.6956Z" fill="#ECD979"/>
    <path d="M6.88868 16.6956H5.51636V15.3043H6.88868V16.6956Z" fill="#ECD979"/>
    <path d="M5.51636 16.6956H4.14404V15.3043H5.51636V16.6956Z" fill="#ECD979"/>
    <path d="M4.14405 16.6956H2.77173V15.3043H4.14405V16.6956Z" fill="#ECD979"/>
    <path d="M34.3347 15.3044H32.9624V13.913H34.3347V15.3044Z" fill="#ECD979"/>
    <path d="M32.9624 15.3044H31.5901V13.913H32.9624V15.3044Z" fill="#ECD979"/>
    <path d="M27.4731 15.3044H26.1008V13.913H27.4731V15.3044Z" fill="#ECD979"/>
    <path d="M26.1008 15.3044H24.7285V13.913H26.1008V15.3044Z" fill="#ECD979"/>
    <path d="M17.8672 15.3044H16.4949V13.913H17.8672V15.3044Z" fill="#ECD979"/>
    <path d="M16.4949 15.3044H15.1226V13.913H16.4949V15.3044Z" fill="#ECD979"/>
    <path d="M11.0056 15.3044H9.6333V13.913H11.0056V15.3044Z" fill="#ECD979"/>
    <path d="M9.63331 15.3044H8.26099V13.913H9.63331V15.3044Z" fill="#ECD979"/>
    <path d="M35.707 13.913H34.3347V12.5217H35.707V13.913Z" fill="#ECD979"/>
    <path d="M34.3347 13.913H32.9624V12.5217H34.3347V13.913Z" fill="#ECD979"/>
    <path d="M32.9624 13.913H31.5901V12.5217H32.9624V13.913Z" fill="#ECD979"/>
    <path d="M26.1008 13.913H24.7285V12.5217H26.1008V13.913Z" fill="#ECD979"/>
    <path d="M24.7285 13.913H23.3562V12.5217H24.7285V13.913Z" fill="#ECD979"/>
    <path d="M19.2395 13.913H17.8672V12.5217H19.2395V13.913Z" fill="#ECD979"/>
    <path d="M17.8672 13.913H16.4949V12.5217H17.8672V13.913Z" fill="#ECD979"/>
    <path d="M11.0056 13.913H9.6333V12.5217H11.0056V13.913Z" fill="#ECD979"/>
    <path d="M9.63331 13.913H8.26099V12.5217H9.63331V13.913Z" fill="#ECD979"/>
    <path d="M8.26099 13.913H6.88867V12.5217H8.26099V13.913Z" fill="#ECD979"/>
    <path d="M35.707 12.5217H34.3347V11.1304H35.707V12.5217Z" fill="#ECD979"/>
    <path d="M34.3347 12.5217H32.9624V11.1304H34.3347V12.5217Z" fill="#ECD979"/>
    <path d="M24.7285 12.5217H23.3562V11.1304H24.7285V12.5217Z" fill="#ECD979"/>
    <path d="M23.3562 12.5217H21.9839V11.1304H23.3562V12.5217Z" fill="#ECD979"/>
    <path d="M20.6118 12.5217H19.2395V11.1304H20.6118V12.5217Z" fill="#ECD979"/>
    <path d="M19.2395 12.5217H17.8672V11.1304H19.2395V12.5217Z" fill="#ECD979"/>
    <path d="M9.63331 12.5217H8.26099V11.1304H9.63331V12.5217Z" fill="#ECD979"/>
    <path d="M8.26099 12.5217H6.88867V11.1304H8.26099V12.5217Z" fill="#ECD979"/>
    <path d="M35.707 11.1304H34.3347V9.73913H35.707V11.1304Z" fill="#ECD979"/>
    <path d="M23.3562 11.1304H21.9839V9.73913H23.3562V11.1304Z" fill="#ECD979"/>
    <path d="M20.6118 11.1304H19.2395V9.73913H20.6118V11.1304Z" fill="#ECD979"/>
    <path d="M8.26099 11.1304H6.88867V9.73913H8.26099V11.1304Z" fill="#ECD979"/>
    <path d="M42.5686 9.73911H41.1963V8.3478H42.5686V9.73911Z" fill="#ECD979"/>
    <path d="M1.39942 9.73911H0.0270996V8.3478H1.39942V9.73911Z" fill="#ECD979"/>
    <path d="M42.5686 8.34781H41.1963V6.9565H42.5686V8.34781Z" fill="#ECD979"/>
    <path d="M41.1963 8.34781H39.824V6.9565H41.1963V8.34781Z" fill="#ECD979"/>
    <path d="M28.8455 8.34781H27.4731V6.9565H28.8455V8.34781Z" fill="#ECD979"/>
    <path d="M27.4731 8.34781H26.1008V6.9565H27.4731V8.34781Z" fill="#ECD979"/>
    <path d="M26.1008 8.34781H24.7285V6.9565H26.1008V8.34781Z" fill="#ECD979"/>
    <path d="M17.8672 8.34781H16.4949V6.9565H17.8672V8.34781Z" fill="#ECD979"/>
    <path d="M16.4949 8.34781H15.1226V6.9565H16.4949V8.34781Z" fill="#ECD979"/>
    <path d="M15.1226 8.34781H13.7502V6.9565H15.1226V8.34781Z" fill="#ECD979"/>
    <path d="M2.77173 8.34781H1.39941V6.9565H2.77173V8.34781Z" fill="#ECD979"/>
    <path d="M1.39942 8.34781H0.0270996V6.9565H1.39942V8.34781Z" fill="#ECD979"/>
    <path d="M42.5686 6.95651H41.1963V5.56521H42.5686V6.95651Z" fill="#ECD979"/>
    <path d="M41.1963 6.95651H39.824V5.56521H41.1963V6.95651Z" fill="#ECD979"/>
    <path d="M39.824 6.95651H38.4517V5.56521H39.824V6.95651Z" fill="#ECD979"/>
    <path d="M30.2178 6.95651H28.8455V5.56521H30.2178V6.95651Z" fill="#ECD979"/>
    <path d="M28.8455 6.95651H27.4731V5.56521H28.8455V6.95651Z" fill="#ECD979"/>
    <path d="M27.4731 6.95651H26.1008V5.56521H27.4731V6.95651Z" fill="#ECD979"/>
    <path d="M23.3562 6.95651H21.9839V5.56521H23.3562V6.95651Z" fill="#ECD979"/>
    <path d="M20.6118 6.95651H19.2395V5.56521H20.6118V6.95651Z" fill="#ECD979"/>
    <path d="M16.4949 6.95651H15.1226V5.56521H16.4949V6.95651Z" fill="#ECD979"/>
    <path d="M15.1226 6.95651H13.7502V5.56521H15.1226V6.95651Z" fill="#ECD979"/>
    <path d="M13.7502 6.95651H12.3779V5.56521H13.7502V6.95651Z" fill="#ECD979"/>
    <path d="M4.14405 6.95651H2.77173V5.56521H4.14405V6.95651Z" fill="#ECD979"/>
    <path d="M2.77173 6.95651H1.39941V5.56521H2.77173V6.95651Z" fill="#ECD979"/>
    <path d="M1.39942 6.95651H0.0270996V5.56521H1.39942V6.95651Z" fill="#ECD979"/>
    <path d="M41.1963 5.56522H39.824V4.17391H41.1963V5.56522Z" fill="#ECD979"/>
    <path d="M39.824 5.56522H38.4517V4.17391H39.824V5.56522Z" fill="#ECD979"/>
    <path d="M38.4517 5.56522H37.0793V4.17391H38.4517V5.56522Z" fill="#ECD979"/>
    <path d="M31.5901 5.56522H30.2178V4.17391H31.5901V5.56522Z" fill="#ECD979"/>
    <path d="M30.2178 5.56522H28.8455V4.17391H30.2178V5.56522Z" fill="#ECD979"/>
    <path d="M28.8455 5.56522H27.4731V4.17391H28.8455V5.56522Z" fill="#ECD979"/>
    <path d="M24.7285 5.56522H23.3562V4.17391H24.7285V5.56522Z" fill="#ECD979"/>
    <path d="M23.3562 5.56522H21.9839V4.17391H23.3562V5.56522Z" fill="#ECD979"/>
    <path d="M20.6118 5.56522H19.2395V4.17391H20.6118V5.56522Z" fill="#ECD979"/>
    <path d="M19.2395 5.56522H17.8672V4.17391H19.2395V5.56522Z" fill="#ECD979"/>
    <path d="M15.1226 5.56522H13.7502V4.17391H15.1226V5.56522Z" fill="#ECD979"/>
    <path d="M13.7502 5.56522H12.3779V4.17391H13.7502V5.56522Z" fill="#ECD979"/>
    <path d="M12.3779 5.56522H11.0056V4.17391H12.3779V5.56522Z" fill="#ECD979"/>
    <path d="M5.51636 5.56522H4.14404V4.17391H5.51636V5.56522Z" fill="#ECD979"/>
    <path d="M4.14405 5.56522H2.77173V4.17391H4.14405V5.56522Z" fill="#ECD979"/>
    <path d="M2.77173 5.56522H1.39941V4.17391H2.77173V5.56522Z" fill="#ECD979"/>
    <path d="M39.824 4.17389H38.4517V2.78259H39.824V4.17389Z" fill="#ECD979"/>
    <path d="M38.4517 4.17389H37.0793V2.78259H38.4517V4.17389Z" fill="#ECD979"/>
    <path d="M37.0794 4.17389H35.707V2.78259H37.0794V4.17389Z" fill="#ECD979"/>
    <path d="M26.1008 4.17389H24.7285V2.78259H26.1008V4.17389Z" fill="#ECD979"/>
    <path d="M24.7285 4.17389H23.3562V2.78259H24.7285V4.17389Z" fill="#ECD979"/>
    <path d="M23.3562 4.17389H21.9839V2.78259H23.3562V4.17389Z" fill="#ECD979"/>
    <path d="M20.6118 4.17389H19.2395V2.78259H20.6118V4.17389Z" fill="#ECD979"/>
    <path d="M19.2395 4.17389H17.8672V2.78259H19.2395V4.17389Z" fill="#ECD979"/>
    <path d="M17.8672 4.17389H16.4949V2.78259H17.8672V4.17389Z" fill="#ECD979"/>
    <path d="M6.88868 4.17389H5.51636V2.78259H6.88868V4.17389Z" fill="#ECD979"/>
    <path d="M5.51636 4.17389H4.14404V2.78259H5.51636V4.17389Z" fill="#ECD979"/>
    <path d="M4.14405 4.17389H2.77173V2.78259H4.14405V4.17389Z" fill="#ECD979"/>
    <path d="M43.9409 2.78259H42.5686V1.39129H43.9409V2.78259Z" fill="#ECD979"/>
    <path d="M38.4517 2.78259H37.0793V1.39129H38.4517V2.78259Z" fill="#ECD979"/>
    <path d="M37.0794 2.78259H35.707V1.39129H37.0794V2.78259Z" fill="#ECD979"/>
    <path d="M35.707 2.78259H34.3347V1.39129H35.707V2.78259Z" fill="#ECD979"/>
    <path d="M26.1008 2.78259H24.7285V1.39129H26.1008V2.78259Z" fill="#ECD979"/>
    <path d="M24.7285 2.78259H23.3562V1.39129H24.7285V2.78259Z" fill="#ECD979"/>
    <path d="M19.2395 2.78259H17.8672V1.39129H19.2395V2.78259Z" fill="#ECD979"/>
    <path d="M17.8672 2.78259H16.4949V1.39129H17.8672V2.78259Z" fill="#ECD979"/>
    <path d="M8.26099 2.78259H6.88867V1.39129H8.26099V2.78259Z" fill="#ECD979"/>
    <path d="M6.88868 2.78259H5.51636V1.39129H6.88868V2.78259Z" fill="#ECD979"/>
    <path d="M5.51636 2.78259H4.14404V1.39129H5.51636V2.78259Z" fill="#ECD979"/>
    <path d="M43.9409 1.3913H42.5686V-7.7486e-06H43.9409V1.3913Z" fill="#ECD979"/>
    <path d="M42.5686 1.3913H41.1963V-7.7486e-06H42.5686V1.3913Z" fill="#ECD979"/>
    <path d="M37.0794 1.3913H35.707V-7.7486e-06H37.0794V1.3913Z" fill="#ECD979"/>
    <path d="M35.707 1.3913H34.3347V-7.7486e-06H35.707V1.3913Z" fill="#ECD979"/>
    <path d="M34.3347 1.3913H32.9624V-7.7486e-06H34.3347V1.3913Z" fill="#ECD979"/>
    <path d="M26.1008 1.3913H24.7285V-7.7486e-06H26.1008V1.3913Z" fill="#ECD979"/>
    <path d="M17.8672 1.3913H16.4949V-7.7486e-06H17.8672V1.3913Z" fill="#ECD979"/>
    <path d="M9.63331 1.3913H8.26099V-7.7486e-06H9.63331V1.3913Z" fill="#ECD979"/>
    <path d="M8.26099 1.3913H6.88867V-7.7486e-06H8.26099V1.3913Z" fill="#ECD979"/>
    <path d="M6.88868 1.3913H5.51636V-7.7486e-06H6.88868V1.3913Z" fill="#ECD979"/>
    <path d="M1.39942 1.3913H0.0270996V-7.7486e-06H1.39942V1.3913Z" fill="#ECD979"/>
</symbol>

<symbol id="icon-arrow-next" viewBox="0 0 32 32">
<path d="M19.414 27.414l10-10c0.781-0.781 0.781-2.047 0-2.828l-10-10c-0.781-0.781-2.047-0.781-2.828 0s-0.781 2.047 0 2.828l6.586 6.586h-19.172c-1.105 0-2 0.895-2 2s0.895 2 2 2h19.172l-6.586 6.586c-0.39 0.39-0.586 0.902-0.586 1.414s0.195 1.024 0.586 1.414c0.781 0.781 2.047 0.781 2.828 0z"></path>
</symbol>

<symbol id="icon-arrow-prev" viewBox="0 0 32 32">
<path d="M12.586 27.414l-10-10c-0.781-0.781-0.781-2.047 0-2.828l10-10c0.781-0.781 2.047-0.781 2.828 0s0.781 2.047 0 2.828l-6.586 6.586h19.172c1.105 0 2 0.895 2 2s-0.895 2-2 2h-19.172l6.586 6.586c0.39 0.39 0.586 0.902 0.586 1.414s-0.195 1.024-0.586 1.414c-0.781 0.781-2.047 0.781-2.828 0z"></path>
</symbol>

<symbol id="icon-youtube" viewBox="0 0 32 32">
<path d="M24.24 6c-1.36-0.080-4.16-0.16-8.4-0.16h-0.56c-4.080 0-6.8 0.080-8.16 0.24-1.84 0.16-3.12 0.64-3.84 1.28-0.64 0.56-1.12 1.6-1.28 2.96-0.080 0.88-0.16 2.72-0.16 5.52v0.4c0 2.64 0.080 4.48 0.24 5.36 0.24 1.28 0.64 2.24 1.44 2.8 0.8 0.64 2.16 1.040 4.080 1.2 1.36 0.080 4.16 0.16 8.4 0.16h0.56c4.080 0 6.8-0.080 8.16-0.24 1.84-0.16 3.12-0.64 3.84-1.28 0.64-0.56 1.12-1.6 1.28-2.96 0.080-0.88 0.16-2.72 0.16-5.52v-0.4c0-2.64-0.080-4.48-0.24-5.36-0.24-1.28-0.64-2.24-1.44-2.8-0.8-0.64-2.16-1.040-4.080-1.2zM21.12 15.84l-8.8 5.28v-10.56l8.8 5.28z"></path>
</symbol>

<symbol id="icon-instagram" viewBox="0 0 32 32">
<path d="M28.717 10.756c-0.016-1.074-0.215-2.14-0.596-3.145-0.667-1.716-2.024-3.073-3.743-3.737-0.994-0.373-2.044-0.573-3.108-0.596-1.368-0.061-1.801-0.078-5.273-0.078s-3.917 0-5.274 0.078c-1.062 0.023-2.112 0.223-3.106 0.596-1.719 0.664-3.078 2.021-3.743 3.737-0.374 0.992-0.576 2.041-0.596 3.101-0.061 1.367-0.080 1.8-0.080 5.265s0 3.909 0.080 5.265c0.021 1.062 0.222 2.109 0.596 3.104 0.667 1.714 2.024 3.071 3.744 3.735 0.989 0.386 2.040 0.605 3.106 0.639 1.369 0.061 1.803 0.080 5.274 0.080s3.916 0 5.274-0.080c1.062-0.021 2.113-0.221 3.108-0.595 1.719-0.666 3.076-2.022 3.743-3.737 0.374-0.994 0.574-2.041 0.596-3.104 0.061-1.365 0.080-1.798 0.080-5.265-0.003-3.466-0.003-3.906-0.082-5.264zM15.99 22.531c-3.631 0-6.572-2.936-6.572-6.561s2.941-6.561 6.572-6.561c3.628 0 6.572 2.936 6.572 6.561s-2.944 6.561-6.572 6.561zM22.823 10.696c-0.849 0-1.532-0.684-1.532-1.53s0.684-1.53 1.532-1.53c0.846 0 1.531 0.684 1.531 1.53s-0.685 1.53-1.531 1.53z"></path>
<path d="M15.992 19.976c2.211 0 4.004-1.793 4.004-4.004s-1.793-4.004-4.004-4.004c-2.211 0-4.004 1.793-4.004 4.004s1.793 4.004 4.004 4.004z"></path>
</symbol>

<symbol id="icon-Frame-52" viewBox="0 0 32 32">
<path d="M19.52 4.64c0.24 0 0.48 0 0.96 0v3.6c-0.24 0-0.72 0-1.2 0s-0.96 0-1.2 0.24c-0.24 0.24-0.24 0.48-0.24 1.040 0 0.48 0 0.8 0 1.28h2.64v3.040h-2.64v13.2h-4.080v-13.28h-2.16v-3.040h2.16v-1.040c0-1.76 0.24-3.040 0.72-3.6 0.72-1.040 2.16-1.52 4.32-1.52 0.24 0.080 0.48 0.080 0.72 0.080z"></path>
</symbol>

<symbol id="icon-close" viewBox="0 0 32 32">
<path stroke-width="2.1818" stroke-miterlimit="4" stroke-linecap="round" stroke-linejoin="round" d="M24 8l-16 16"></path>
<path stroke-width="2.1818" stroke-miterlimit="4" stroke-linecap="round" stroke-linejoin="round" d="M8 8l16 16"></path>
</symbol>

<symbol id="icon-nav" viewBox="0 0 47 32">
<path fill="none" stroke-width="3.2" stroke-miterlimit="4" stroke-linecap="round" stroke-linejoin="miter" d="M8.742 5.188h36.591"></path>
<path fill="none" stroke-width="3.2" stroke-miterlimit="4" stroke-linecap="round" stroke-linejoin="miter" d="M8.742 24.582h36.591"></path>
<path fill="none" stroke-width="3.2" stroke-miterlimit="4" stroke-linecap="round" stroke-linejoin="miter" d="M19.965 14.885h25.368"></path>
</symbol>

<symbol id="icon-star" viewBox="0 0 32 32">
<path d="M15.434 0.333c0.251-0.437 0.881-0.437 1.133 0l1.84 3.203c0.19 0.33 0.621 0.429 0.935 0.214l3.081-2.107c0.418-0.286 0.987-0.008 1.020 0.496l0.239 3.642c0.025 0.383 0.374 0.662 0.754 0.602l3.69-0.584c0.504-0.080 0.9 0.423 0.706 0.894l-1.386 3.36c-0.148 0.359 0.048 0.767 0.421 0.876l3.555 1.036c0.493 0.144 0.635 0.773 0.252 1.115l-2.731 2.433c-0.291 0.26-0.291 0.715 0 0.975l2.731 2.433c0.383 0.341 0.241 0.971-0.252 1.115l-3.555 1.036c-0.373 0.109-0.569 0.517-0.421 0.876l1.386 3.36c0.194 0.471-0.202 0.974-0.706 0.894l-3.69-0.584c-0.38-0.060-0.729 0.219-0.754 0.602l-0.239 3.642c-0.033 0.505-0.603 0.782-1.020 0.496l-3.081-2.107c-0.314-0.215-0.745-0.116-0.935 0.214l-1.84 3.203c-0.251 0.437-0.881 0.437-1.133 0l-1.84-3.203c-0.19-0.33-0.621-0.429-0.935-0.214l-3.081 2.107c-0.418 0.286-0.987 0.009-1.020-0.496l-0.239-3.642c-0.025-0.383-0.374-0.662-0.754-0.602l-3.69 0.584c-0.504 0.080-0.9-0.423-0.706-0.894l1.386-3.36c0.148-0.359-0.048-0.767-0.421-0.876l-3.555-1.036c-0.493-0.144-0.635-0.773-0.252-1.115l2.731-2.433c0.291-0.26 0.291-0.715 0-0.975l-2.731-2.433c-0.383-0.341-0.241-0.971 0.252-1.115l3.555-1.036c0.373-0.109 0.569-0.517 0.421-0.876l-1.386-3.36c-0.194-0.471 0.202-0.974 0.706-0.894l3.69 0.584c0.38 0.060 0.729-0.219 0.754-0.602l0.239-3.642c0.033-0.505 0.603-0.782 1.020-0.496l3.081 2.107c0.314 0.215 0.745 0.116 0.935-0.214l1.84-3.203z"></path>
</symbol>

<symbol id="icon-arrow" viewBox="0 0 45 32">
<path d="M39.199 18.762c-0.245-1.84-0.404-3.482-0.476-4.927-0.031-1.468 0.025-2.739 0.167-3.812l-35.708 20.616-1.689-2.926 35.708-20.616c-1.027-0.459-2.169-1.070-3.425-1.831-1.215-0.785-2.545-1.72-3.989-2.806l2.144-1.238c4.53 1.905 8.673 2.857 12.429 2.856l0.724 1.254c-1.906 3.206-3.153 7.27-3.741 12.192l-2.144 1.238z"></path>
</symbol>
</defs>
</svg>
